<svg width="50" height="50" viewBox="0 0 50 50" fill="none" xmlns="http://www.w3.org/2000/svg">
<path d="M27.6049 0C15.2643 0 5.20981 10.1349 5.20981 22.5742C5.20981 27.9206 7.12124 32.8096 10.2193 36.683L0 46.5842L3.38873 50L13.6079 40.0988C17.4506 43.2216 22.3008 45.1483 27.6049 45.1483C39.9454 45.1483 50 35.0134 50 22.5742C50 10.1349 39.9454 0 27.6049 0ZM27.6049 4.75245C37.3974 4.75245 45.2852 12.7033 45.2852 22.5742C45.2852 32.4449 37.3974 40.3958 27.6049 40.3958C17.8124 40.3958 9.92454 32.4449 9.92454 22.5742C9.92454 12.7033 17.8124 4.75245 27.6049 4.75245Z" fill="#9E9E9E"/>
</svg>
