<svg width="50" height="52" viewBox="0 0 50 52" fill="none" xmlns="http://www.w3.org/2000/svg">
<path fill-rule="evenodd" clip-rule="evenodd" d="M47.9317 9.01206C48.9883 9.01206 49.8679 9.82411 49.8679 10.8574V11.8128C49.8679 12.8209 48.9883 13.6581 47.9317 13.6581H2.92115C1.86198 13.6581 0.982422 12.8209 0.982422 11.8128V10.8574C0.982422 9.82411 1.86198 9.01206 2.92115 9.01206H10.8398C12.4484 9.01206 13.8483 7.95365 14.2101 6.46026L14.6248 4.74567C15.2693 2.41009 17.3903 0.858887 19.8177 0.858887H31.0327C33.4337 0.858887 35.5783 2.41009 36.1992 4.62248L36.643 6.45775C37.002 7.95365 38.4018 9.01206 40.0133 9.01206H47.9317ZM43.9091 43.9357C44.7356 36.8031 46.1834 19.8583 46.1834 19.6874C46.2361 19.1695 46.0538 18.6792 45.6921 18.2845C45.3038 17.9149 44.8125 17.6962 44.2709 17.6962H6.60045C6.05635 17.6962 5.53866 17.9149 5.17942 18.2845C4.81491 18.6792 4.63532 19.1695 4.66172 19.6874C4.66657 19.7188 4.71853 20.3157 4.80534 21.3136C5.19108 25.7465 6.26544 38.0932 6.95965 43.9357C7.45095 48.2398 10.5017 50.945 14.9206 51.0431C18.3305 51.116 21.8435 51.1411 25.4357 51.1411C28.8192 51.1411 32.2555 51.116 35.7711 51.0431C40.3433 50.9702 43.3913 48.3127 43.9091 43.9357Z" fill="#202020"/>
</svg>
