<svg width="43" height="46" viewBox="0 0 43 46" fill="none" xmlns="http://www.w3.org/2000/svg">
<path d="M13.0127 2V8.29685" stroke="#292D32" stroke-width="4" stroke-miterlimit="10" stroke-linecap="round" stroke-linejoin="round"/>
<path d="M29.8047 2V8.29685" stroke="#292D32" stroke-width="4" stroke-miterlimit="10" stroke-linecap="round" stroke-linejoin="round"/>
<path d="M29.8049 5.14844C36.7944 5.52625 40.2997 8.19192 40.2997 18.057V31.0285C40.2997 39.6762 38.2007 44 27.706 44H15.1123C4.61751 44 2.51855 39.6762 2.51855 31.0285V18.057C2.51855 8.19192 6.0238 5.54724 13.0133 5.14844H29.8049Z" stroke="#292D32" stroke-width="4" stroke-miterlimit="10" stroke-linecap="round" stroke-linejoin="round"/>
<path d="M39.7746 34.7437H3.04297" stroke="#292D32" stroke-width="4" stroke-miterlimit="10" stroke-linecap="round" stroke-linejoin="round"/>
<path d="M21.4095 15.1184C18.8278 15.1184 16.6449 16.5247 16.6449 19.2533C16.6449 20.5547 17.2536 21.5412 18.1771 22.1709C16.8967 22.9265 16.1621 24.1439 16.1621 25.5712C16.1621 28.1739 18.1561 29.7901 21.4095 29.7901C24.6419 29.7901 26.6569 28.1739 26.6569 25.5712C26.6569 24.1439 25.9222 22.9055 24.6209 22.1709C25.5654 21.5202 26.1531 20.5547 26.1531 19.2533C26.1531 16.5247 23.9912 15.1184 21.4095 15.1184ZM21.4095 21.0794C20.318 21.0794 19.5204 20.4288 19.5204 19.4003C19.5204 18.3508 20.318 17.7421 21.4095 17.7421C22.5009 17.7421 23.2985 18.3508 23.2985 19.4003C23.2985 20.4288 22.5009 21.0794 21.4095 21.0794ZM21.4095 27.1874C20.0242 27.1874 19.0167 26.4947 19.0167 25.2353C19.0167 23.976 20.0242 23.3043 21.4095 23.3043C22.7948 23.3043 23.8023 23.997 23.8023 25.2353C23.8023 26.4947 22.7948 27.1874 21.4095 27.1874Z" fill="#292D32"/>
</svg>
