<svg width="45" height="44" viewBox="0 0 45 44" fill="none" xmlns="http://www.w3.org/2000/svg">
<path d="M16.2998 42H28.2998C38.2998 42 42.2998 38 42.2998 28V16C42.2998 6 38.2998 2 28.2998 2H16.2998C6.2998 2 2.2998 6 2.2998 16V28C2.2998 38 6.2998 42 16.2998 42Z" stroke="#292D32" stroke-width="4" stroke-linecap="round" stroke-linejoin="round"/>
<path d="M2.2998 24.02H9.82733C11.3489 24.02 12.7302 24.8778 13.4109 26.2344L15.1927 29.8055C16.3138 32 18.3158 32 18.7963 32H25.8634C27.3849 32 28.7663 31.1421 29.447 29.7855L31.2287 26.2145C31.9094 24.8579 33.2908 24 34.8123 24H42.2998" stroke="#292D32" stroke-width="4" stroke-linecap="round" stroke-linejoin="round"/>
</svg>
