<svg width="49" height="48" viewBox="0 0 49 48" fill="none" xmlns="http://www.w3.org/2000/svg">
<path d="M24.2487 30.6747C27.935 30.6747 30.9232 27.6864 30.9232 24.0002C30.9232 20.314 27.935 17.3257 24.2487 17.3257C20.5625 17.3257 17.5742 20.314 17.5742 24.0002C17.5742 27.6864 20.5625 30.6747 24.2487 30.6747Z" stroke="#292D32" stroke-width="4" stroke-miterlimit="10" stroke-linecap="round" stroke-linejoin="round"/>
<path d="M2 25.9579V22.0421C2 19.7283 3.89111 17.815 6.22719 17.815C10.2541 17.815 11.9005 14.9672 9.87592 11.4742C8.719 9.47183 9.4087 6.86877 11.4333 5.71185L15.2823 3.50927C17.0399 2.4636 19.3092 3.08655 20.3549 4.84417L20.5996 5.26689C22.602 8.75988 25.8947 8.75988 27.9193 5.26689L28.1641 4.84417C29.2097 3.08655 31.4791 2.4636 33.2367 3.50927L37.0857 5.71185C39.1103 6.86877 39.8 9.47183 38.643 11.4742C36.6184 14.9672 38.2648 17.815 42.2918 17.815C44.6056 17.815 46.519 19.7061 46.519 22.0421V25.9579C46.519 28.2717 44.6278 30.185 42.2918 30.185C38.2648 30.185 36.6184 33.0328 38.643 36.5258C39.8 38.5504 39.1103 41.1312 37.0857 42.2881L33.2367 44.4907C31.4791 45.5364 29.2097 44.9135 28.1641 43.1558L27.9193 42.7331C25.917 39.2401 22.6242 39.2401 20.5996 42.7331L20.3549 43.1558C19.3092 44.9135 17.0399 45.5364 15.2823 44.4907L11.4333 42.2881C9.4087 41.1312 8.719 38.5282 9.87592 36.5258C11.9005 33.0328 10.2541 30.185 6.22719 30.185C3.89111 30.185 2 28.2717 2 25.9579Z" stroke="#292D32" stroke-width="4" stroke-miterlimit="10" stroke-linecap="round" stroke-linejoin="round"/>
</svg>
