<svg width="63" height="59" viewBox="0 0 63 59" fill="none" xmlns="http://www.w3.org/2000/svg">
<path fill-rule="evenodd" clip-rule="evenodd" d="M13.9212 0.979061C2.51997 4.64974 -2.56537 17.0966 1.25707 28.9706C3.19677 34.5619 6.35133 39.5873 10.4959 43.7104C16.1816 49.2324 22.4279 54.0918 29.1425 58.2209L29.905 58.6775C30.6353 59.1145 31.5489 59.1069 32.2717 58.6576L32.9835 58.2152C39.6889 54.0918 45.9353 49.2324 51.6015 43.7295C55.7655 39.5873 58.9201 34.5619 60.8435 29.0192C64.6799 17.1038 59.5735 4.65105 48.1688 0.979244L47.3438 0.733561C42.1148 -0.704624 36.5582 0.00404031 31.874 2.65608L31.0414 3.14965L30.2235 2.65883C25.2829 -0.144581 19.3781 -0.776218 13.9212 0.979061ZM29.1088 7.31029L29.7197 7.74847C30.525 8.32522 31.6116 8.31375 32.4046 7.72013C36.5346 4.62826 41.8796 3.72852 46.776 5.29937C55.6124 8.14427 59.6337 17.9511 56.5338 27.5806C54.8524 32.424 52.0692 36.8578 48.4142 40.4939L46.7746 42.0515C42.357 46.1568 37.5797 49.8731 32.5075 53.1481L31.0546 54.0618L31.498 54.3413C25.0901 50.4007 19.1071 45.746 13.6793 40.4747C10.0437 36.8578 7.26055 32.424 5.56291 27.532C2.4763 17.9419 6.48018 8.14203 15.3118 5.29866C19.9752 3.7986 25.0593 4.54232 29.1088 7.31029ZM43.0704 12.3708C41.8756 11.9895 40.5976 12.6481 40.2159 13.8419C39.8343 15.0358 40.4935 16.3127 41.6883 16.6941C44.0366 17.4436 45.7108 19.5573 45.9206 22.0506C46.0257 23.2995 47.1241 24.2268 48.374 24.1218C49.6239 24.0168 50.5519 22.9193 50.4469 21.6704C50.0837 17.3543 47.1738 13.6805 43.0704 12.3708Z" fill="black"/>
</svg>
