<svg width="21" height="18" viewBox="0 0 21 18" fill="none" xmlns="http://www.w3.org/2000/svg">
<path d="M12.1496 1.21187C12.2987 1.204 12.4488 1.20001 12.5998 1.20001C17.239 1.20001 20.9998 4.96082 20.9998 9.60001C20.9998 14.2392 17.239 18 12.5998 18C11.0075 18 9.51877 17.557 8.25 16.7875C12.6799 16.5536 16.1998 12.8875 16.1998 8.39936C16.1998 5.35242 14.5775 2.68438 12.1496 1.21187Z" fill="black"/>
<path d="M4.31148 6.5156C4.44003 6.71978 4.52005 6.95986 4.6801 7.44C4.8792 8.03732 4.97876 8.33598 5.11688 8.43091C5.28749 8.54818 5.51271 8.54818 5.68332 8.43091C5.82144 8.33598 5.92099 8.03732 6.1201 7.44C6.28015 6.95986 6.36017 6.71978 6.48872 6.5156C6.64817 6.26233 6.86242 6.04807 7.1157 5.88862C7.31988 5.76007 7.55995 5.68005 8.0401 5.52C8.63742 5.32089 8.93608 5.22134 9.03101 5.08322C9.14827 4.91261 9.14827 4.68739 9.03101 4.51678C8.93608 4.37866 8.63742 4.27911 8.0401 4.08C7.55995 3.91995 7.31988 3.83993 7.1157 3.71138C6.86242 3.55193 6.64817 3.33767 6.48872 3.0844C6.36017 2.88022 6.28015 2.64014 6.1201 2.16C5.92099 1.56268 5.82144 1.26402 5.68332 1.16909C5.51271 1.05182 5.28749 1.05182 5.11688 1.16909C4.97876 1.26402 4.8792 1.56268 4.6801 2.16C4.52005 2.64014 4.44003 2.88022 4.31148 3.0844C4.15203 3.33767 3.93777 3.55193 3.6845 3.71138C3.48031 3.83993 3.24024 3.91995 2.7601 4.08C2.16278 4.27911 1.86412 4.37866 1.76918 4.51678C1.65192 4.68739 1.65192 4.91261 1.76918 5.08322C1.86412 5.22134 2.16278 5.32089 2.7601 5.52C3.24024 5.68005 3.48031 5.76007 3.6845 5.88862C3.93777 6.04807 4.15203 6.26233 4.31148 6.5156Z" fill="black"/>
</svg>
