<svg width="51" height="32" viewBox="0 0 51 32" fill="none" xmlns="http://www.w3.org/2000/svg">
<g clip-path="url(#clip0_402_49)">
<path d="M42.6648 3.44238L23.0579 23.0493C21.5686 24.5385 21.5686 26.9532 23.0579 28.4424C24.5472 29.9317 26.9618 29.9317 28.4511 28.4424L48.058 8.83557C49.5473 7.34628 49.5473 4.93167 48.058 3.44238C46.5687 1.95309 44.1541 1.95309 42.6648 3.44238Z" fill="#868686"/>
<path d="M28.6531 23.125L9.0462 3.51813C7.55692 2.02884 5.1423 2.02884 3.65302 3.51813C2.16373 5.00742 2.16373 7.42203 3.65302 8.91132L23.2599 28.5182C24.7492 30.0075 27.1638 30.0075 28.6531 28.5182C30.1424 27.0289 30.1424 24.6143 28.6531 23.125Z" fill="#868686"/>
</g>
<defs>
<clipPath id="clip0_402_49">
<rect width="50" height="30.5085" fill="white" transform="translate(0.869141 0.74585)"/>
</clipPath>
</defs>
</svg>
